<svg xmlns="http://www.w3.org/2000/svg" width="883" height="883" viewBox="0 0 883 883"><defs><style>.a{fill:#fff;}.b{fill:#dbe8ef;}.c{fill:none;}</style></defs><g transform="translate(-1250.2 -84.15)"><path class="a" d="M1691.5,366.2v94.9h-76.1V366.2h24.5v36.7h34V366.2Z"/><path class="b" d="M1691.5,461.1V494h-57.4l-18.7-32.9Z"/><path class="a" d="M1691.5,494v24.8h-86.8l29.4-24.8Z"/><rect class="b" width="86.9" height="28.7" transform="translate(1604.7 518.8)"/><path class="a" d="M1691.5,547.5v277H1571s35.6-32.9,60.3-76.5,18.9-123.2,6.3-150.4a528.562,528.562,0,0,0-26.8-50.1Z"/><rect class="b" width="151.5" height="29.8" transform="translate(1540 824.5)"/><rect class="a" width="168.7" height="39.8" transform="translate(1522.8 854.4)"/><path class="b" d="M1691.7,366.2v94.9h76.2V366.2h-24.5v36.7h-34.1V366.2Z"/><path class="a" d="M1691.7,461.1V494h57.4l18.8-32.9Z"/><path class="b" d="M1691.7,494v24.8h86.9L1749.1,494Z"/><rect class="a" width="86.9" height="28.7" transform="translate(1691.7 518.8)"/><path class="b" d="M1691.7,547.5v277h120.5s-35.6-32.9-60.3-76.5-18.9-123.2-6.3-150.4a528.562,528.562,0,0,1,26.8-50.1Z"/><rect class="a" width="151.5" height="29.8" transform="translate(1691.7 824.5)"/><rect class="b" width="168.7" height="39.8" transform="translate(1691.7 854.4)"/><rect class="c" width="883" height="883" transform="translate(1250.2 84.15)"/></g></svg>