<svg xmlns="http://www.w3.org/2000/svg" width="883" height="883" viewBox="0 0 883 883"><defs><style>.a{fill:#dbe8ef;}.b{fill:#fff;}.c{fill:none;}</style></defs><g transform="translate(213.8 -84.15)"><path class="a" d="M227.8,227.7v44.4H153.6l60.1-44.4Z"/><path class="b" d="M227.8,272.1v91.4h-57l-17.2-91.4Z"/><path class="a" d="M227.8,363.5v31.4H137.2l33.6-31.4Z"/><rect class="b" width="90.7" height="32.9" transform="translate(137.2 394.9)"/><path class="a" d="M227.8,427.8V821.5H105s61.2-82.6,70-152.3,3.1-145.8-6.5-181a482.587,482.587,0,0,0-20.7-60.5h80Z"/><rect class="b" width="151.1" height="31.4" transform="translate(76.7 821.5)"/><rect class="a" width="172.2" height="41.3" transform="translate(55.7 852.9)"/><path class="b" d="M227.8,227.7v44.4h74.3L242,227.7Z"/><path class="a" d="M227.8,272.1v91.4h57l17.3-91.4Z"/><path class="b" d="M227.8,363.5v31.4h90.7l-33.7-31.4Z"/><rect class="a" width="90.7" height="32.9" transform="translate(227.8 394.9)"/><path class="b" d="M227.8,427.8V821.5H350.6s-61.2-82.6-70-152.3c-8.8-69.6-3.1-145.8,6.5-181a482.586,482.586,0,0,1,20.7-60.5h-80Z"/><rect class="a" width="151.1" height="31.4" transform="translate(227.8 821.5)"/><rect class="b" width="172.2" height="41.3" transform="translate(227.8 852.9)"/><path class="b" d="M227.8,156.9H203.9v13l8.2,4.6v14.9l-6.1,4.2-26-9.2v50.2l28.7-11.9,5,5h14.1Z"/><path class="a" d="M227.8,156.9h23.9v13l-8.2,4.6v14.9l6.1,4.2,26.1-9.2v50.2L247,222.7l-5,5H227.8Z"/><rect class="c" width="883" height="883" transform="translate(-213.8 84.15)"/></g></svg>