<svg xmlns="http://www.w3.org/2000/svg" width="883" height="883" viewBox="0 0 883 883"><defs><style>.a{fill:#dbe8ef;}.b{fill:#fff;}.c{fill:none;}</style></defs><g transform="translate(-885.2 -84.15)"><path class="a" d="M1326.8,798.1v25.3h-88.4l14.2-25.3Z"/><rect class="b" width="141.9" height="31" transform="translate(1184.8 823.4)"/><rect class="a" width="156.9" height="39.8" transform="translate(1169.9 854.4)"/><path class="b" d="M1326.8,798.1v25.3h88.4L1401,798.1Z"/><rect class="a" width="141.9" height="31" transform="translate(1326.8 823.4)"/><rect class="b" width="156.9" height="39.8" transform="translate(1326.8 854.4)"/><path class="b" d="M1349.5,368.1v41.6s-133.7,96.2-138.8,99.2c-5.1,3.1-12.7,44.9-12.7,44.9l29,39.8s34.7-19.4,39.8-21.4,38.8,4.1,38.8,4.1l21.2,12.2s-139.3,139.8-141.9,142.8,67.7,66.8,67.7,66.8h74.2l26.8-158.7L1371,525.1l10.1-109.2C1381.1,416.1,1390.3,382.4,1349.5,368.1Z"/><path class="a" d="M1381.1,416.1s43.9,18.4,75.5,84.7,6.1,152.5-31.6,191l43.7,41.6L1401,798.2h-74.2L1371,525.3Z"/><rect class="c" width="883" height="883" transform="translate(885.2 84.15)"/></g></svg>