<svg xmlns="http://www.w3.org/2000/svg" width="883" height="883" viewBox="0 0 883 883"><defs><style>.a{fill:#fff;}.b{fill:#dbe8ef;}.c{fill:none;}</style></defs><g transform="translate(-531.3 -84.15)"><path class="a" d="M972.4,320.3V493.2h-50s-24.1-25.1-11.9-91.8C921.4,342.2,972.4,320.3,972.4,320.3Z"/><path class="b" d="M972.4,493.2v33.7H882.6l39.8-33.7Z"/><rect class="a" width="89.8" height="27.5" transform="translate(882.6 526.9)"/><path class="b" d="M972.4,554.4V823.2H853.5s62.7-41.8,71.4-122.9-32.1-145.9-32.1-145.9"/><path class="a" d="M853.5,823.3h-26v36.2H972.4V823.3Z"/><path class="b" d="M827.5,859.5H807.1v34.7H972.4V859.5Z"/><path class="b" d="M972.4,320.3V493.2h50s24.1-25.1,11.9-91.8C1023.4,342.2,972.4,320.3,972.4,320.3Z"/><path class="a" d="M972.4,493.2v33.7h89.8l-39.8-33.7Z"/><rect class="b" width="89.8" height="27.5" transform="translate(972.4 526.9)"/><path class="a" d="M972.4,554.4V823.2h118.9s-62.7-41.8-71.4-122.9S1052,554.4,1052,554.4"/><path class="b" d="M1091.2,823.3h26.1v36.2H972.4V823.3Z"/><path class="a" d="M1117.3,859.5h20.4v34.7H972.4V859.5Z"/><rect class="c" width="883" height="883" transform="translate(531.3 84.15)"/></g></svg>