<svg xmlns="http://www.w3.org/2000/svg" width="883" height="883" viewBox="0 0 883 883"><defs><style>.a{fill:#fff;}.b{fill:#dbe8ef;}.c{fill:none;}</style></defs><g transform="translate(-1618.2 -84.15)"><path class="a" d="M2059.9,413.2V531.8h-38.6s-24.9-14.2-24.9-55.9S2027.4,412.5,2059.9,413.2Z"/><path class="b" d="M1984.6,557.9H2060v-26h-52C2007.9,531.9,1990.3,538.4,1984.6,557.9Z"/><path class="a" d="M1984.6,557.9h-13.1v30.6h88.4V557.9Z"/><path class="b" d="M1935.2,821.1s30.6-18.7,49.7-40.6c19.1-21.8,32.1-64.3,28.3-111.5s-30.2-80.6-30.2-80.6h76.9V821H1935.2Z"/><path class="a" d="M1935.2,821.1h-20.3v31.8h145V821.1Z"/><path class="b" d="M1914.9,852.9H1895v41.3h164.9V852.9Z"/><path class="b" d="M2059.9,413.2V531.8h38.6s24.9-14.2,24.9-55.9S2092.4,412.5,2059.9,413.2Z"/><path class="a" d="M2135.3,557.9h-75.4v-26h52C2112,531.9,2129.6,538.4,2135.3,557.9Z"/><path class="b" d="M2135.3,557.9h13v30.6h-88.4V557.9Z"/><path class="a" d="M2184.7,821.1s-30.6-18.7-49.7-40.6c-19.1-21.8-32.1-64.3-28.3-111.5s30.2-80.6,30.2-80.6H2060V821h124.7Z"/><path class="b" d="M2184.7,821.1h20.2v31.8h-145V821.1Z"/><path class="a" d="M2204.9,852.9h19.9v41.3H2059.9V852.9Z"/><rect class="c" width="883" height="883" transform="translate(1618.2 84.15)"/></g></svg>