<svg xmlns="http://www.w3.org/2000/svg" width="883" height="883" viewBox="0 0 883 883"><defs><style>.a{fill:#fff;}.b{fill:#dbe8ef;}.c{fill:none;}</style></defs><g transform="translate(-162.2 -84.15)"><path class="a" d="M603.5,224.6v50.9H584.4s-8.8-6.1-8.8-25.4S589.8,224.6,603.5,224.6Z"/><path class="b" d="M603.5,275.5v132H553s-18.4-31.4-18.7-69.3c-.4-37.9,31-60.8,50.1-62.7Z"/><path class="a" d="M603.5,407.5v27.2h-86L553,407.5Z"/><rect class="b" width="86.1" height="32.5" transform="translate(517.5 434.7)"/><path class="a" d="M603.5,467.2V820.3H483.8s56.2-64.7,64.3-104.1c8-39.4,13.5-115.1,7.7-146.5-6.1-33-21.4-91.8-29.8-102.5h77.5Z"/><rect class="b" width="149.6" height="33.7" transform="translate(453.9 820.3)"/><rect class="a" width="164.1" height="40.2" transform="translate(439.4 854)"/><path class="b" d="M603.5,224.6v50.9h19.1s8.8-6.1,8.8-25.4S617.3,224.6,603.5,224.6Z"/><path class="a" d="M603.5,275.5v132H654s18.4-31.4,18.7-69.3-31-60.8-50.1-62.7Z"/><path class="b" d="M603.5,407.5v27.2h86.1l-35.5-27.2Z"/><rect class="a" width="86.1" height="32.5" transform="translate(603.5 434.7)"/><path class="b" d="M603.5,467.2V820.3H723.3S667.1,755.6,659,716.2c-8-39.4-13.5-115.1-7.7-146.5,6.1-33,21.4-91.8,29.8-102.5H603.5Z"/><rect class="a" width="149.6" height="33.7" transform="translate(603.5 820.3)"/><rect class="b" width="164.1" height="40.2" transform="translate(603.5 854)"/><rect class="c" width="883" height="883" transform="translate(162.2 84.15)"/></g></svg>