<svg xmlns="http://www.w3.org/2000/svg" width="883" height="883" viewBox="0 0 883 883"><defs><style>.a{fill:#3e4c4a;}.b{fill:#283432;}.c{fill:none;}</style></defs><g transform="translate(-3183.2 -915.15)"><path class="a" d="M1308.1,1150.8v172.9h50s24.1-25.1,11.9-91.8C1359.1,1172.7,1308.1,1150.8,1308.1,1150.8Z" transform="translate(2316.6)"/><path class="b" d="M1308.1,1323.7v33.7h89.8l-39.8-33.7Z" transform="translate(2316.6)"/><rect class="a" width="89.8" height="27.5" transform="translate(3624.7 1357.4)"/><path class="b" d="M1308.1,1385v268.8H1427s-62.7-41.8-71.4-122.9,32.1-145.9,32.1-145.9" transform="translate(2316.6)"/><path class="a" d="M1427,1653.8h26V1690H1308.1v-36.2Z" transform="translate(2316.6)"/><path class="b" d="M1453,1690h20.4v34.7H1308.1V1690Z" transform="translate(2316.6)"/><path class="b" d="M1308.1,1150.8v172.9h-50s-24.1-25.1-11.9-91.8C1257.1,1172.7,1308.1,1150.8,1308.1,1150.8Z" transform="translate(2316.6)"/><path class="a" d="M1308.1,1323.7v33.7h-89.8l39.8-33.7Z" transform="translate(2316.6)"/><rect class="b" width="89.8" height="27.5" transform="translate(3534.9 1357.4)"/><path class="a" d="M1308.1,1385v268.8H1189.2s62.7-41.8,71.4-122.9-32.1-145.9-32.1-145.9" transform="translate(2316.6)"/><path class="b" d="M1189.3,1653.8h-26.1V1690h144.9v-36.2Z" transform="translate(2316.6)"/><path class="a" d="M1163.2,1690h-20.4v34.7h165.3V1690Z" transform="translate(2316.6)"/><rect class="c" width="883" height="883" transform="translate(3183.2 915.15)"/></g></svg>