<svg xmlns="http://www.w3.org/2000/svg" width="883" height="883" viewBox="0 0 883 883"><defs><style>.a{fill:#283432;}.b{fill:#3e4c4a;}.c{fill:none;}</style></defs><g transform="translate(-1611.2 -915.15)"><path class="a" d="M2052.7,1058.2v44.4h74.2l-60.1-44.4Z"/><path class="b" d="M2052.7,1102.6V1194h57l17.2-91.4Z"/><path class="a" d="M2052.7,1194v31.4h90.6l-33.6-31.4Z"/><rect class="b" width="90.7" height="32.9" transform="translate(2052.7 1225.4)"/><path class="a" d="M2052.7,1258.3V1652h122.8s-61.2-82.6-70-152.3-3.1-145.8,6.5-181a482.615,482.615,0,0,1,20.7-60.5h-80Z"/><rect class="b" width="151.1" height="31.4" transform="translate(2052.7 1652)"/><rect class="a" width="172.2" height="41.3" transform="translate(2052.7 1683.4)"/><path class="b" d="M2052.7,1058.2v44.4h-74.3l60.1-44.4Z"/><path class="a" d="M2052.7,1102.6V1194h-57.1l-17.2-91.4Z"/><path class="b" d="M2052.7,1194v31.4H1962l33.6-31.4Z"/><rect class="a" width="90.7" height="32.9" transform="translate(1962 1225.4)"/><path class="b" d="M2052.7,1258.3V1652H1929.9s61.2-82.6,70-152.3c8.8-69.6,3.1-145.8-6.5-181a482.591,482.591,0,0,0-20.7-60.5h80Z"/><rect class="a" width="151.1" height="31.4" transform="translate(1901.5 1652)"/><rect class="b" width="172.2" height="41.3" transform="translate(1880.5 1683.4)"/><path class="b" d="M2052.7,987.4h23.9v13l-8.3,4.6v14.9l6.2,4.3,26-9.2v50.1l-28.7-11.9-5,5h-14.1Z"/><path class="a" d="M2052.7,987.4h-24v13l8.3,4.6v14.9l-6.2,4.3-26-9.2v50.1l28.7-11.9,5,5h14.2Z"/><rect class="c" width="883" height="883" transform="translate(1611.2 915.15)"/></g></svg>