<svg xmlns="http://www.w3.org/2000/svg" width="883" height="883" viewBox="0 0 883 883"><defs><style>.a{fill:#283432;}.b{fill:#3e4c4a;}.c{fill:none;}</style></defs><g transform="translate(-512.2 -915.15)"><path class="a" d="M953.7,1628.7v25.2h88.4l-14.2-25.2Z"/><rect class="b" width="141.9" height="31" transform="translate(953.7 1653.9)"/><rect class="a" width="156.9" height="39.8" transform="translate(953.7 1684.9)"/><path class="b" d="M953.7,1628.7v25.2H865.3l14.2-25.2Z"/><rect class="a" width="141.9" height="31" transform="translate(811.8 1653.9)"/><rect class="b" width="156.9" height="39.8" transform="translate(796.8 1684.9)"/><path class="b" d="M931,1198.6v41.6s133.7,96.2,138.8,99.2c5.1,3.1,12.7,44.9,12.7,44.9l-29,39.8s-34.7-19.4-39.8-21.4-38.8,4.1-38.8,4.1L953.7,1419s139.3,139.8,141.9,142.8c2.7,3.1-67.7,66.8-67.7,66.8H953.7L926.9,1470l-17.4-114.3-10.1-109.2C899.4,1246.6,890.2,1212.9,931,1198.6Z"/><path class="a" d="M899.4,1246.6s-43.9,18.4-75.5,84.7-6.1,152.5,31.6,191l-43.7,41.6,67.7,64.8h74.2l-44.2-272.9Z"/><rect class="c" width="883" height="883" transform="translate(512.2 915.15)"/></g></svg>