<svg xmlns="http://www.w3.org/2000/svg" width="883" height="883" viewBox="0 0 883 883"><defs><style>.a{fill:#3e4c4a;}.b{fill:#283432;}.c{fill:none;}</style></defs><g transform="translate(220.8 -915.15)"><path class="a" d="M220.6,1243.8v118.6h38.6s24.9-14.2,24.9-55.9S253.1,1243,220.6,1243.8Z"/><path class="b" d="M295.9,1388.4H220.5v-26h52C272.6,1362.4,290.2,1368.9,295.9,1388.4Z"/><path class="a" d="M295.9,1388.4h13V1419H220.6v-30.6Z"/><path class="b" d="M345.3,1651.6s-30.6-18.7-49.7-40.6c-19.1-21.8-32.1-64.3-28.3-111.5s30.2-80.6,30.2-80.6H220.6v232.6H345.3Z"/><path class="a" d="M345.3,1651.6h20.3v31.8h-145v-31.8Z"/><path class="b" d="M365.6,1683.4h19.9v41.3H220.6v-41.3Z"/><path class="b" d="M220.6,1243.8v118.6H182s-24.9-14.2-24.9-55.9S188,1243,220.6,1243.8Z"/><path class="a" d="M145.2,1388.4h75.4v-26h-52C168.5,1362.4,150.9,1368.9,145.2,1388.4Z"/><path class="b" d="M145.2,1388.4h-13V1419h88.4v-30.6Z"/><path class="a" d="M95.8,1651.6s30.6-18.7,49.7-40.6,32.1-64.3,28.3-111.5-30.2-80.6-30.2-80.6h76.9v232.6H95.8Z"/><path class="b" d="M95.8,1651.6H75.6v31.8h145v-31.8Z"/><path class="a" d="M75.6,1683.4H55.7v41.3H220.6v-41.3Z"/><rect class="c" width="883" height="883" transform="translate(-220.8 915.15)"/></g></svg>