<svg xmlns="http://www.w3.org/2000/svg" width="883" height="883" viewBox="0 0 883 883"><defs><style>.a{fill:#3e4c4a;}.b{fill:#283432;}.c{fill:none;}</style></defs><g transform="translate(-1235.2 -915.15)"><path class="a" d="M1676.9,1055.1V1106H1696s8.8-6.1,8.8-25.4S1690.7,1055.1,1676.9,1055.1Z"/><path class="b" d="M1676.9,1106v132h50.5s18.4-31.4,18.7-69.3-31-60.8-50.1-62.7Z"/><path class="a" d="M1676.9,1238v27.2H1763l-35.6-27.2Z"/><rect class="b" width="86.1" height="32.5" transform="translate(1676.9 1265.2)"/><path class="a" d="M1676.9,1297.7v353.1h119.8s-56.2-64.7-64.3-104.1c-8-39.4-13.5-115.1-7.7-146.5,6.1-33,21.4-91.8,29.8-102.5Z"/><rect class="b" width="149.6" height="33.7" transform="translate(1676.9 1650.9)"/><rect class="a" width="164.1" height="40.2" transform="translate(1676.9 1684.5)"/><path class="b" d="M1676.9,1055.1V1106h-19.1s-8.8-6.1-8.8-25.4S1663.2,1055.1,1676.9,1055.1Z"/><path class="a" d="M1676.9,1106v132h-50.5s-18.4-31.4-18.7-69.3c-.4-37.9,31-60.8,50.1-62.7Z"/><path class="b" d="M1676.9,1238v27.2h-86l35.5-27.2Z"/><rect class="a" width="86.1" height="32.5" transform="translate(1590.9 1265.2)"/><path class="b" d="M1676.9,1297.7v353.1H1557.1s56.2-64.7,64.3-104.1c8-39.4,13.5-115.1,7.7-146.5-6.1-33-21.4-91.8-29.8-102.5Z"/><rect class="a" width="149.6" height="33.7" transform="translate(1527.3 1650.9)"/><rect class="b" width="164.1" height="40.2" transform="translate(1512.8 1684.5)"/><rect class="c" width="883" height="883" transform="translate(1235.2 915.15)"/></g></svg>