<svg xmlns="http://www.w3.org/2000/svg" width="883" height="883" viewBox="0 0 883 883"><defs><style>.a{fill:#3e4c4a;}.b{fill:#283432;}.c{fill:none;}</style></defs><g transform="translate(-147.2 -915.15)"><path class="a" d="M589,1196.7v94.9h76.1v-94.9H640.6v36.7h-34v-36.7Z"/><path class="b" d="M589,1291.6v32.9h57.3l18.8-32.9Z"/><path class="a" d="M589,1324.5v24.9h86.8l-29.5-24.9Z"/><rect class="b" width="86.9" height="28.7" transform="translate(589 1349.4)"/><path class="a" d="M589,1378.1v277H709.5s-35.6-32.9-60.3-76.5-18.9-123.2-6.3-150.4a528.577,528.577,0,0,1,26.8-50.1Z"/><rect class="b" width="151.5" height="29.8" transform="translate(589 1655.1)"/><rect class="a" width="168.7" height="39.8" transform="translate(589 1684.9)"/><path class="b" d="M588.8,1196.7v94.9H512.6v-94.9h24.5v36.7h34.1v-36.7Z"/><path class="a" d="M588.8,1291.6v32.9H531.4l-18.8-32.9Z"/><path class="b" d="M588.8,1324.5v24.9H501.9l29.5-24.9Z"/><rect class="a" width="86.9" height="28.7" transform="translate(501.9 1349.4)"/><path class="b" d="M588.8,1378.1v277H468.2s35.6-32.9,60.3-76.5,18.9-123.2,6.3-150.4a528.579,528.579,0,0,0-26.8-50.1Z"/><rect class="a" width="151.5" height="29.8" transform="translate(437.3 1655.1)"/><rect class="b" width="168.7" height="39.8" transform="translate(420 1684.9)"/><rect class="c" width="883" height="883" transform="translate(147.2 915.15)"/></g></svg>